# xmcd
#
# Track frame offsets: 
#        150
#        15522
#        32255
#        47104
#        70892
#        89505
#        113329
#        133138
#        150243
#        167607
#        188507
#        203926
#
# Disc length: 3046 seconds
#
# Revision: 0
# Processed by: cddbd v1.5.1PL0 Copyright (c) Steve Scherf et al.
# Submitted via: ExactAudioCopy v0.95a5
#
DISCID=8b0be40c
DTITLE=Snowy White and The White Flames - The Way It Is
DYEAR=2004
DGENRE=Blues
TTITLE0=No Stranger To The Blues
TTITLE1=Bird of Paradise
TTITLE2=Black Magic Woman
TTITLE3=What I'm Searchig For
TTITLE4=Angel Inside You (part 1)
TTITLE5=Angel Inside You (part 2)
TTITLE6=Falling
TTITLE7=The Way It Is
TTITLE8=A Piece Of Your Love
TTITLE9=This Time Of My Life
TTITLE10=Easy
TTITLE11=Sweet Bluesmaker
EXTD=
EXTT0=
EXTT1=
EXTT2=
EXTT3=
EXTT4=
EXTT5=
EXTT6=
EXTT7=
EXTT8=
EXTT9=
EXTT10=
EXTT11=
PLAYORDER=
